<svg width="336" height="113" viewBox="0 0 336 113" fill="none" xmlns="http://www.w3.org/2000/svg">
<path d="M107.532 59.8239C102.174 54.5711 98.337 50.8085 94.0649 46.6197L87.037 39.7287L86.8214 39.5173C85.4597 28.1662 75.4891 19.3905 63.7256 19.3905C58.681 19.3905 53.7873 21.0005 49.7955 23.9422H49.7631L42.5807 18.9043L28.7728 28.5256C22.8587 32.6545 19.298 39.3623 19.298 46.4964V92.6652H108.146V60.4298L107.528 59.8239H107.532ZM82.6104 39.8485L75.7082 46.6162C72.4566 49.8045 69.4564 52.7462 65.8311 56.3009V46.5281C65.8311 39.394 62.3027 32.6862 56.3886 28.5573L53.446 26.5245C56.4785 24.6115 60.0391 23.5793 63.7256 23.5793C73.2901 23.5793 81.4319 30.6817 82.6104 39.8802V39.8485ZM40.4429 88.5398H23.509V46.5281C23.509 40.7292 26.387 35.2968 31.1873 31.957L42.5484 24.0338L46.5402 26.8275L46.4791 26.8874C46.3857 26.979 46.2923 27.0988 46.1989 27.1904C46.0444 27.3736 45.8899 27.5251 45.7354 27.7047C45.642 27.8245 45.5485 27.9478 45.4551 28.0676C45.333 28.2191 45.1749 28.4023 45.0527 28.582C44.9593 28.7017 44.8659 28.825 44.7725 28.9765C44.6503 29.128 44.5245 29.3112 44.4024 29.4909C44.309 29.6107 44.2155 29.7657 44.1221 29.8855C44 30.037 43.9065 30.2202 43.7808 30.3998C43.6874 30.5513 43.5939 30.6746 43.5329 30.8261C43.4394 31.0093 43.346 31.1608 43.2239 31.3405C43.1304 31.492 43.0694 31.6434 42.976 31.7949C42.8825 31.9781 42.7891 32.1296 42.6957 32.3093C42.6346 32.4608 42.5412 32.6123 42.4801 32.7638C42.3867 32.9469 42.3256 33.1266 42.2322 33.2781C42.1711 33.4296 42.11 33.5811 42.0454 33.7326C41.9843 33.9158 41.8909 34.0954 41.8298 34.2786C41.7687 34.4301 41.7076 34.5816 41.6429 34.7648C41.5819 34.948 41.5208 35.1277 41.4561 35.3109C41.395 35.4624 41.3627 35.6139 41.3016 35.7971C41.2405 35.9802 41.2082 36.1599 41.1471 36.3748C41.1148 36.5263 41.0537 36.6778 41.0249 36.861C40.9962 37.0442 40.9315 37.2556 40.9028 37.4388C40.8704 37.5903 40.8417 37.7417 40.8094 37.9249C40.777 38.1363 40.7483 38.3195 40.7159 38.5309C40.7159 38.6824 40.6549 38.8339 40.6549 38.9854C40.6549 39.1967 40.5938 39.4116 40.5614 39.623C40.5614 39.7745 40.5291 39.926 40.5004 40.0493C40.5004 40.2924 40.468 40.5355 40.4393 40.7786V88.5856V88.5257L40.4429 88.5398ZM44.6862 88.5398V41.004C44.6862 40.7927 44.6862 40.6095 44.7186 40.3981C44.7186 40.2783 44.7186 40.155 44.7509 40.0352C44.7509 39.852 44.7832 39.6723 44.812 39.4891C44.812 39.3694 44.8443 39.2461 44.8731 39.1263C44.8731 38.9431 44.9341 38.7916 44.9665 38.6119C44.9665 38.4921 45.0276 38.3688 45.0599 38.2173C45.0922 38.0659 45.121 37.8827 45.1821 37.7312C45.2144 37.6114 45.2431 37.4564 45.2755 37.3366C45.3078 37.1851 45.3689 37.0336 45.3976 36.8504C45.43 36.7306 45.4911 36.5756 45.5198 36.4559C45.5809 36.3044 45.6132 36.1529 45.6743 36.0014C45.7354 35.8816 45.7677 35.7266 45.8288 35.6068C45.8899 35.4553 45.951 35.3038 46.0156 35.1805C46.0767 35.0607 46.1378 34.9057 46.2025 34.7859C46.2635 34.6345 46.3246 34.5112 46.3893 34.3597C46.4504 34.2399 46.5115 34.0849 46.5761 33.9651C46.6372 33.8453 46.6983 33.6903 46.7917 33.5705C46.8528 33.4507 46.9462 33.2957 47.0073 33.1759C47.0684 33.0562 47.1618 32.9012 47.2229 32.7814C47.3163 32.6616 47.3774 32.5066 47.4708 32.3868C47.5642 32.267 47.6253 32.1437 47.7187 32.0239C47.8121 31.9041 47.9056 31.7808 47.999 31.6293C48.0924 31.5096 48.1535 31.3863 48.2469 31.2665C48.3403 31.1467 48.4337 31.0234 48.5271 30.9036C48.6206 30.7838 48.714 30.6605 48.8074 30.5689C48.9008 30.4491 49.023 30.3258 49.1164 30.2061C49.2098 30.0863 49.3032 29.9947 49.3967 29.8714C49.4901 29.7481 49.6122 29.6283 49.738 29.5085L49.9536 29.2971L53.8232 31.9993C58.6235 35.3391 61.5015 40.8032 61.5015 46.5704V88.5821H44.5677L44.6898 88.5504L44.6862 88.5398ZM65.8311 62.1596C70.8756 57.2133 74.5621 53.5987 78.6797 49.5614L82.7038 45.6156C82.7038 54.9339 82.7362 75.3638 82.7362 88.568H65.8023V62.1913L65.8347 62.1596H65.8311ZM103.91 88.5398H86.9759C86.9759 75.3673 86.9759 54.9058 87.0082 45.5874L91.0324 49.5332C95.15 53.5706 98.8328 57.1816 103.881 62.1314V88.5081L103.913 88.5398H103.91Z" fill="black"/>
<path d="M172.292 76.1673C169.644 76.1673 167.621 78.186 167.621 80.7824C167.621 83.3789 169.68 85.4363 172.292 85.4363C173.69 85.4363 175.199 84.7493 176.302 83.6678L178.36 85.8309C176.744 87.455 174.387 88.5365 172.145 88.5365C167.545 88.5365 164.089 85.1827 164.089 80.8177C164.089 76.4527 167.621 73.208 172.292 73.208C174.498 73.208 176.851 74.1804 178.36 75.6952L176.338 78.112C175.235 76.9565 173.725 76.1638 172.292 76.1638V76.1673Z" fill="black"/>
<path d="M195.539 80.8563C195.539 85.2213 191.971 88.54 187.26 88.54C182.55 88.54 178.982 85.2213 178.982 80.8563C178.982 76.4913 182.55 73.2114 187.26 73.2114C191.971 73.2114 195.539 76.4949 195.539 80.8563ZM182.593 80.8563C182.593 83.488 184.763 85.5807 187.339 85.5807C189.916 85.5807 192.01 83.5232 192.01 80.8563C192.01 78.1894 189.912 76.1672 187.339 76.1672C184.727 76.2024 182.593 78.2246 182.593 80.8563Z" fill="black"/>
<path d="M201.719 73.3174L206.206 82.5512L210.658 73.3174H214.52V88.3923H211.395V78.2214L207.313 86.8774H205.031L200.95 78.2214V88.3923H197.824V73.3174H201.722H201.719Z" fill="black"/>
<path d="M230.631 78.5489C230.631 82.0473 228.386 84.1047 224.487 84.1047H221.433V88.3957H217.977V73.3208H224.487C228.386 73.3208 230.631 75.2338 230.631 78.5489ZM227.322 78.6581C227.322 76.9636 226.219 76.1322 224.308 76.1322H221.437V81.2546H224.308C226.219 81.2546 227.322 80.3879 227.322 78.6581Z" fill="black"/>
<path d="M236.298 73.3174V85.4365H242.92V88.3923H232.841V73.3174H236.298Z" fill="black"/>
<path d="M256.677 73.3174V76.1323H248.438V79.4157H255.833V82.2306H248.438V85.5844H256.936V88.3993H244.982V73.3244H256.681L256.677 73.3174Z" fill="black"/>
<path d="M262.563 73.3174L265.764 77.9325L269.001 73.3174H273.083L267.97 80.5325L273.525 88.3958H269.368L265.724 83.3826L262.157 88.3958H258.075L263.594 80.6769L258.445 73.3174H262.566H262.563Z" fill="black"/>
<path d="M134.346 35.3003H125.062V66.3132H134.346V35.3003Z" fill="black"/>
<path d="M142.017 35.3003H152.573L159.274 54.86H159.684L166.349 35.3003H176.902V66.3097H168.781V47.7787H168.332L161.93 66.3097H156.953L150.554 47.7787H150.105V66.3097H142.017V35.3003Z" fill="black"/>
<path d="M192.513 35.3003H204.155L214.485 66.3132H204.715L203.105 60.148H193.562L191.953 66.3132H182.183L192.513 35.3003ZM195.244 53.722H201.42L198.539 42.7127H198.09L195.244 53.722Z" fill="black"/>
<path d="M262.505 35.3003H274.146L284.476 66.3132H274.707L273.097 60.148H263.554L261.944 66.3132H252.175L262.505 35.3003ZM265.239 53.722H271.416L268.534 42.7127H268.085L265.239 53.722Z" fill="black"/>
<path d="M220.097 35.3003H234.357C242.668 35.3003 246.933 39.1897 246.933 45.834V45.8693C246.933 49.5015 245.101 53.0245 241.842 54.5675L247.831 66.3132H237.426L232.41 55.8887H229.342V66.3132H220.057L220.093 35.3003H220.097ZM233.272 49.9066C235.816 49.9066 237.426 48.3283 237.426 45.9785V45.9433C237.426 43.6674 235.816 42.0151 233.272 42.0151H229.381V49.9066H233.272Z" fill="black"/>
<path d="M294.472 42.5295H285.676V35.3003H312.548V42.5295H303.753V66.3484H294.472V42.5295Z" fill="black"/>
</svg>
