<svg width="279" height="95" viewBox="0 0 279 95" fill="none" xmlns="http://www.w3.org/2000/svg">
<path d="M89.2896 50.2945C84.8412 45.8784 81.6549 42.7152 78.1075 39.1936L72.2718 33.4003L72.0928 33.2226C70.9621 23.6797 62.6829 16.3018 52.915 16.3018C48.7262 16.3018 44.6627 17.6553 41.3481 20.1285H41.3212L35.3572 15.8931L23.8917 23.9818C18.9809 27.453 16.0243 33.0923 16.0243 39.0899V77.9044H89.7998V50.8039L89.2866 50.2945H89.2896ZM68.5962 33.501L62.8649 39.1907C60.1649 41.8711 57.6737 44.3442 54.6633 47.3327V39.1166C54.6633 33.1189 51.7335 27.4797 46.8227 24.0084L44.3793 22.2995C46.8973 20.6912 49.854 19.8234 52.915 19.8234C60.857 19.8234 67.6176 25.7944 68.5962 33.5277V33.501ZM33.5821 74.4362H19.5209V39.1166C19.5209 34.2415 21.9107 29.6744 25.8966 26.8666L35.3304 20.2055L38.645 22.5542L38.5943 22.6045C38.5167 22.6815 38.4392 22.7822 38.3616 22.8592C38.2333 23.0133 38.105 23.1406 37.9767 23.2917C37.8992 23.3924 37.8216 23.496 37.744 23.5967C37.6426 23.7241 37.5113 23.8781 37.4099 24.0292C37.3323 24.1299 37.2547 24.2335 37.1772 24.3609C37.0757 24.4882 36.9713 24.6422 36.8699 24.7933C36.7923 24.894 36.7147 25.0243 36.6371 25.125C36.5357 25.2524 36.4581 25.4064 36.3537 25.5574C36.2761 25.6848 36.1986 25.7885 36.1479 25.9158C36.0703 26.0698 35.9927 26.1972 35.8913 26.3483C35.8137 26.4756 35.763 26.603 35.6854 26.7303C35.6078 26.8843 35.5303 27.0117 35.4527 27.1627C35.402 27.2901 35.3244 27.4175 35.2737 27.5448C35.1961 27.6988 35.1454 27.8499 35.0678 27.9772C35.0171 28.1046 34.9664 28.232 34.9127 28.3593C34.862 28.5133 34.7844 28.6644 34.7337 28.8184C34.683 28.9458 34.6322 29.0731 34.5785 29.2271C34.5278 29.3811 34.4771 29.5322 34.4234 29.6862C34.3727 29.8136 34.3458 29.9409 34.2951 30.0949C34.2444 30.249 34.2175 30.4 34.1668 30.5807C34.14 30.708 34.0893 30.8354 34.0654 30.9894C34.0415 31.1434 33.9878 31.3211 33.9639 31.4751C33.9371 31.6025 33.9132 31.7299 33.8864 31.8839C33.8595 32.0616 33.8357 32.2156 33.8088 32.3933C33.8088 32.5207 33.7581 32.648 33.7581 32.7754C33.7581 32.9531 33.7074 33.1338 33.6805 33.3115C33.6805 33.4388 33.6537 33.5662 33.6298 33.6698C33.6298 33.8742 33.6029 34.0786 33.5791 34.2829V74.4747V74.4243L33.5821 74.4362ZM37.1056 74.4362V34.4725C37.1056 34.2948 37.1056 34.1408 37.1324 33.9631C37.1324 33.8624 37.1324 33.7587 37.1593 33.658C37.1593 33.504 37.1861 33.3529 37.21 33.1989C37.21 33.0982 37.2368 32.9945 37.2607 32.8938C37.2607 32.7398 37.3114 32.6125 37.3383 32.4614C37.3383 32.3607 37.389 32.2571 37.4158 32.1297C37.4427 32.0023 37.4666 31.8483 37.5173 31.721C37.5441 31.6203 37.568 31.49 37.5948 31.3892C37.6217 31.2619 37.6724 31.1345 37.6963 30.9805C37.7231 30.8798 37.7739 30.7495 37.7977 30.6488C37.8484 30.5214 37.8753 30.3941 37.926 30.2667C37.9767 30.166 38.0036 30.0357 38.0543 29.935C38.105 29.8076 38.1557 29.6803 38.2094 29.5766C38.2602 29.4759 38.3109 29.3456 38.3646 29.2449C38.4153 29.1175 38.466 29.0139 38.5197 28.8865C38.5704 28.7858 38.6212 28.6555 38.6749 28.5548C38.7256 28.4541 38.7763 28.3238 38.8539 28.2231C38.9046 28.1224 38.9822 27.9921 39.0329 27.8914C39.0836 27.7907 39.1612 27.6603 39.2119 27.5596C39.2895 27.4589 39.3402 27.3286 39.4177 27.2279C39.4953 27.1272 39.546 27.0235 39.6236 26.9228C39.7012 26.8221 39.7787 26.7185 39.8563 26.5911C39.9339 26.4904 39.9846 26.3868 40.0622 26.2861C40.1397 26.1854 40.2173 26.0817 40.2949 25.981C40.3725 25.8803 40.45 25.7766 40.5276 25.6996C40.6052 25.5989 40.7066 25.4952 40.7842 25.3945C40.8618 25.2938 40.9393 25.2168 41.0169 25.1132C41.0945 25.0095 41.1959 24.9088 41.3003 24.8081L41.4793 24.6304L44.6925 26.9021C48.6785 29.7099 51.0682 34.3037 51.0682 39.1521V74.4717H37.0071L37.1085 74.4451L37.1056 74.4362ZM54.6633 52.2582C58.8521 48.0998 61.9132 45.061 65.3322 41.6667L68.6737 38.3495C68.6737 46.1835 68.7006 63.359 68.7006 74.4599H54.6395V52.2848L54.6663 52.2582H54.6633ZM86.2822 74.4362H72.2211C72.2211 63.362 72.2211 46.1598 72.248 38.3258L75.5894 41.643C79.0085 45.0373 82.0666 48.0731 86.2584 52.2345V74.4095L86.2852 74.4362H86.2822Z" fill="#CB8E0A"/>
<path d="M143.064 64.0343C140.865 64.0343 139.185 65.7314 139.185 67.9143C139.185 70.0971 140.895 71.8268 143.064 71.8268C144.224 71.8268 145.477 71.2493 146.393 70.34L148.103 72.1585C146.76 73.5239 144.803 74.4332 142.941 74.4332C139.123 74.4332 136.253 71.6136 136.253 67.9439C136.253 64.2742 139.185 61.5464 143.064 61.5464C144.896 61.5464 146.85 62.3638 148.103 63.6374L146.423 65.6692C145.507 64.6978 144.254 64.0313 143.064 64.0313V64.0343Z" fill="#CB8E0A"/>
<path d="M162.367 67.9765C162.367 71.6461 159.404 74.4362 155.493 74.4362C151.582 74.4362 148.619 71.6461 148.619 67.9765C148.619 64.3068 151.582 61.5493 155.493 61.5493C159.404 61.5493 162.367 64.3098 162.367 67.9765ZM151.617 67.9765C151.617 70.1889 153.419 71.9483 155.559 71.9483C157.698 71.9483 159.437 70.2186 159.437 67.9765C159.437 65.7344 157.695 64.0343 155.559 64.0343C153.39 64.0639 151.617 65.764 151.617 67.9765Z" fill="#CB8E0A"/>
<path d="M167.498 61.6382L171.225 69.4011L174.921 61.6382H178.129V74.3118H175.533V65.7611L172.144 73.0382H170.249L166.86 65.7611V74.3118H164.264V61.6382H167.501H167.498Z" fill="#CB8E0A"/>
<path d="M191.507 66.0365C191.507 68.9776 189.642 70.7073 186.405 70.7073H183.869V74.3148H180.999V61.6412H186.405C189.642 61.6412 191.507 63.2494 191.507 66.0365ZM188.759 66.1283C188.759 64.7037 187.843 64.0047 186.256 64.0047H183.872V68.3112H186.256C187.843 68.3112 188.759 67.5826 188.759 66.1283Z" fill="#CB8E0A"/>
<path d="M196.211 61.6382V71.8268H201.71V74.3118H193.341V61.6382H196.211Z" fill="#CB8E0A"/>
<path d="M213.134 61.6382V64.0047H206.293V66.7651H212.433V69.1316H206.293V71.9512H213.349V74.3177H203.423V61.6441H213.137L213.134 61.6382Z" fill="#CB8E0A"/>
<path d="M218.021 61.6382L220.679 65.5182L223.367 61.6382H226.756L222.511 67.704L227.123 74.3148H223.671L220.646 70.1001L217.684 74.3148H214.294L218.877 67.8254L214.602 61.6382H218.024H218.021Z" fill="#CB8E0A"/>
<path d="M111.555 29.6773H103.846V55.7501H111.555V29.6773Z" fill="#010101"/>
<path d="M117.925 29.6773H126.69L132.255 46.1213H132.595L138.129 29.6773H146.892V55.7471H140.149V40.168H139.776L134.459 55.7471H130.327L125.014 40.168H124.641V55.7471H117.925V29.6773Z" fill="#010101"/>
<path d="M159.855 29.6773H169.521L178.099 55.7501H169.987L168.65 50.5669H160.726L159.389 55.7501H151.277L159.855 29.6773ZM162.122 45.1646H167.251L164.858 35.909H164.485L162.122 45.1646Z" fill="#010101"/>
<path d="M217.973 29.6773H227.639L236.217 55.7501H228.105L226.768 50.5669H218.844L217.508 55.7501H209.395L217.973 29.6773ZM220.243 45.1646H225.372L222.979 35.909H222.606L220.243 45.1646Z" fill="#010101"/>
<path d="M182.759 29.6773H194.6C201.501 29.6773 205.043 32.9471 205.043 38.5331V38.5627C205.043 41.6164 203.521 44.5782 200.815 45.8754L205.788 55.7501H197.148L192.983 46.9861H190.435V55.7501H182.726L182.756 29.6773H182.759ZM193.699 41.957C195.812 41.957 197.148 40.6301 197.148 38.6545V38.6249C197.148 36.7116 195.812 35.3225 193.699 35.3225H190.468V41.957H193.699Z" fill="#010101"/>
<path d="M244.517 35.7549H237.213V29.6773H259.527V35.7549H252.223V55.7797H244.517V35.7549Z" fill="#010101"/>
</svg>
